<svg width="973" height="972" viewBox="0 0 973 972" fill="none" xmlns="http://www.w3.org/2000/svg">
<path d="M517.222 55.5661L619.361 288.529C623.205 297.295 629.331 304.869 637.099 310.462C644.867 316.054 653.993 319.46 663.526 320.324L912.348 342.634C940.501 346.732 951.732 381.259 931.319 401.14L743.886 558.599C728.71 571.347 721.804 591.381 725.978 610.731L780.462 865.776C785.243 893.777 755.876 915.176 730.683 901.897L513.504 774.716C505.313 769.906 495.987 767.37 486.489 767.37C476.991 767.37 467.665 769.906 459.474 774.716L242.295 901.821C217.178 915.025 187.735 893.701 192.516 865.7L247 610.655C251.098 591.305 244.268 571.272 229.092 558.523L41.583 401.216C21.2462 381.411 32.477 346.808 60.5539 342.71L309.376 320.4C318.909 319.536 328.035 316.13 335.803 310.537C343.571 304.945 349.697 297.371 353.541 288.605L455.68 55.6419C468.353 30.145 504.625 30.145 517.222 55.5661Z" fill="#FDD835"/>
<path d="M509.841 302.523L492.54 130.874C491.857 121.313 489.884 104.922 505.212 104.922C517.354 104.922 523.956 130.191 523.956 130.191L575.86 267.996C595.438 320.431 587.394 338.416 568.499 349.04C546.797 361.181 514.774 351.696 509.841 302.523Z" fill="#FFFF8D"/>
<path d="M723.853 543.339L872.737 427.161C880.098 421.014 893.377 411.225 882.754 400.07C874.331 391.268 851.566 403.94 851.566 403.94L721.273 454.858C682.421 468.29 656.62 488.171 654.344 513.213C651.384 546.602 681.358 572.326 723.853 543.339Z" fill="#F4B400"/>
</svg>
