<svg width="2065" height="972" viewBox="0 0 2065 972" fill="none" xmlns="http://www.w3.org/2000/svg">
<path d="M516.511 54.8844L618.65 287.847C622.494 296.613 628.62 304.187 636.388 309.78C644.156 315.372 653.282 318.778 662.815 319.643L911.637 341.952C939.79 346.05 951.021 380.577 930.608 400.459L743.175 557.917C727.999 570.666 721.093 590.699 725.267 610.049L779.751 865.094C784.532 893.095 755.165 914.495 729.972 901.215L512.793 774.034C504.602 769.224 495.276 766.688 485.778 766.688C476.28 766.688 466.954 769.224 458.763 774.034L241.584 901.139C216.467 914.343 187.024 893.02 191.805 865.019L246.289 609.973C250.387 590.623 243.557 570.59 228.381 557.841L40.8721 400.535C20.5353 380.729 31.766 346.126 59.843 342.028L308.666 319.718C318.198 318.854 327.324 315.448 335.092 309.856C342.861 304.263 348.986 296.689 352.83 287.923L454.969 54.9603C467.642 29.4634 503.914 29.4634 516.511 54.8844Z" fill="#FDD835"/>
<path d="M509.132 301.845L491.831 130.196C491.148 120.635 489.175 104.244 504.503 104.244C516.645 104.244 523.247 129.513 523.247 129.513L575.151 267.318C594.729 319.754 586.685 337.738 567.79 348.362C546.088 360.503 514.065 351.018 509.132 301.845Z" fill="#FFFF8D"/>
<path d="M723.142 542.657L872.026 426.479C879.387 420.332 892.667 410.543 882.043 399.389C873.62 390.586 850.855 403.259 850.855 403.259L720.562 454.177C681.71 467.608 655.909 487.489 653.633 512.531C650.674 545.92 680.648 571.644 723.142 542.657Z" fill="#F4B400"/>
<path d="M1609.23 54.8844L1711.37 287.847C1715.22 296.613 1721.34 304.187 1729.11 309.78C1736.88 315.372 1746 318.778 1755.54 319.643L2004.36 341.952C2032.51 346.05 2043.74 380.577 2023.33 400.459L1835.9 557.917C1820.72 570.666 1813.82 590.699 1817.99 610.049L1872.47 865.094C1877.25 893.095 1847.89 914.495 1822.69 901.215L1605.52 774.034C1597.32 769.224 1588 766.688 1578.5 766.688C1569 766.688 1559.68 769.224 1551.49 774.034L1334.31 901.139C1309.19 914.343 1279.75 893.02 1284.53 865.019L1339.01 609.973C1343.11 590.623 1336.28 570.59 1321.1 557.841L1133.59 400.535C1113.26 380.729 1124.49 346.126 1152.57 342.028L1401.39 319.718C1410.92 318.854 1420.05 315.448 1427.82 309.856C1435.58 304.263 1441.71 296.689 1445.55 287.923L1547.69 54.9603C1560.36 29.4634 1596.64 29.4634 1609.23 54.8844Z" fill="#FDD835"/>
<path d="M1601.85 301.845L1584.55 130.196C1583.87 120.635 1581.89 104.244 1597.22 104.244C1609.36 104.244 1615.97 129.513 1615.97 129.513L1667.87 267.318C1687.45 319.754 1679.4 337.738 1660.51 348.362C1638.81 360.503 1606.78 351.018 1601.85 301.845Z" fill="#FFFF8D"/>
<path d="M1815.89 542.657L1964.77 426.479C1972.13 420.332 1985.41 410.543 1974.79 399.389C1966.37 390.586 1943.6 403.259 1943.6 403.259L1813.31 454.177C1774.46 467.608 1748.66 487.489 1746.38 512.531C1743.42 545.92 1773.4 571.644 1815.89 542.657Z" fill="#F4B400"/>
</svg>
