<svg width="3158" height="972" viewBox="0 0 3158 972" fill="none" xmlns="http://www.w3.org/2000/svg">
<path d="M517.091 54.9079L619.23 287.871C623.074 296.637 629.2 304.211 636.968 309.803C644.736 315.396 653.862 318.802 663.395 319.666L912.217 341.976C940.37 346.074 951.601 380.601 931.188 400.482L743.755 557.941C728.579 570.689 721.673 590.722 725.847 610.073L780.331 865.118C785.112 893.119 755.745 914.518 730.552 901.238L513.373 774.057C505.182 769.248 495.856 766.712 486.358 766.712C476.86 766.712 467.534 769.248 459.344 774.057L242.164 901.163C217.047 914.366 187.604 893.043 192.385 865.042L246.869 609.997C250.967 590.647 244.137 570.613 228.961 557.865L41.4522 400.558C21.1153 380.752 32.3461 346.149 60.4231 342.052L309.246 319.742C318.778 318.878 327.905 315.472 335.673 309.879C343.441 304.287 349.566 296.713 353.41 287.947L455.549 54.9837C468.222 29.4868 504.494 29.4868 517.091 54.9079Z" fill="#FDD835"/>
<path d="M509.71 301.865L492.409 130.216C491.726 120.655 489.753 104.264 505.082 104.264C517.223 104.264 523.825 129.533 523.825 129.533L575.729 267.338C595.307 319.773 587.264 337.758 568.369 348.381C546.666 360.523 514.643 351.037 509.71 301.865Z" fill="#FFFF8D"/>
<path d="M723.75 542.68L872.634 426.502C879.994 420.356 893.274 410.567 882.65 399.412C874.227 390.609 851.462 403.282 851.462 403.282L721.17 454.2C682.317 467.631 656.517 487.513 654.24 512.555C651.281 545.943 681.255 571.668 723.75 542.68Z" fill="#F4B400"/>
<path d="M1609.82 54.9079L1711.95 287.871C1715.8 296.637 1721.92 304.211 1729.69 309.803C1737.46 315.396 1746.59 318.802 1756.12 319.666L2004.94 341.976C2033.09 346.074 2044.33 380.601 2023.91 400.482L1836.48 557.941C1821.3 570.689 1814.4 590.722 1818.57 610.073L1873.06 865.118C1877.84 893.119 1848.47 914.518 1823.28 901.238L1606.1 774.057C1597.91 769.248 1588.58 766.712 1579.08 766.712C1569.58 766.712 1560.26 769.248 1552.07 774.057L1334.89 901.163C1309.77 914.366 1280.33 893.043 1285.11 865.042L1339.59 609.997C1343.69 590.647 1336.86 570.613 1321.69 557.865L1134.18 400.558C1113.84 380.752 1125.07 346.149 1153.15 342.052L1401.97 319.742C1411.5 318.878 1420.63 315.472 1428.4 309.879C1436.17 304.287 1442.29 296.713 1446.13 287.947L1548.27 54.9837C1560.95 29.4868 1597.22 29.4868 1609.82 54.9079Z" fill="#FDD835"/>
<path d="M1602.43 301.865L1585.13 130.216C1584.45 120.655 1582.48 104.264 1597.8 104.264C1609.95 104.264 1616.55 129.533 1616.55 129.533L1668.45 267.338C1688.03 319.773 1679.99 337.758 1661.09 348.381C1639.39 360.523 1607.37 351.037 1602.43 301.865Z" fill="#FFFF8D"/>
<path d="M1816.45 542.68L1965.33 426.502C1972.69 420.356 1985.97 410.567 1975.35 399.412C1966.92 390.609 1944.16 403.282 1944.16 403.282L1813.87 454.2C1775.01 467.631 1749.21 487.513 1746.94 512.555C1743.98 545.943 1773.95 571.668 1816.45 542.68Z" fill="#F4B400"/>
<path d="M2702.54 54.9079L2804.68 287.871C2808.52 296.637 2814.65 304.211 2822.42 309.803C2830.19 315.396 2839.31 318.802 2848.84 319.666L3097.67 341.976C3125.82 346.074 3137.05 380.601 3116.64 400.482L2929.2 557.941C2914.03 570.689 2907.12 590.722 2911.3 610.073L2965.78 865.118C2970.56 893.119 2941.19 914.518 2916 901.238L2698.82 774.057C2690.63 769.248 2681.31 766.712 2671.81 766.712C2662.31 766.712 2652.98 769.248 2644.79 774.057L2427.61 901.163C2402.5 914.366 2373.05 893.043 2377.83 865.042L2432.32 609.997C2436.42 590.647 2429.59 570.613 2414.41 557.865L2226.9 400.558C2206.56 380.752 2217.8 346.149 2245.87 342.052L2494.69 319.742C2504.23 318.878 2513.35 315.472 2521.12 309.879C2528.89 304.287 2535.02 296.713 2538.86 287.947L2641 54.9837C2653.67 29.4868 2689.94 29.4868 2702.54 54.9079Z" fill="#FDD835"/>
<path d="M2695.16 301.865L2677.86 130.216C2677.17 120.655 2675.2 104.264 2690.53 104.264C2702.67 104.264 2709.27 129.533 2709.27 129.533L2761.18 267.338C2780.75 319.773 2772.71 337.758 2753.82 348.381C2732.11 360.523 2700.09 351.037 2695.16 301.865Z" fill="#FFFF8D"/>
<path d="M2909.2 542.68L3058.08 426.502C3065.44 420.356 3078.72 410.567 3068.1 399.412C3059.67 390.609 3036.91 403.282 3036.91 403.282L2906.62 454.2C2867.76 467.631 2841.96 487.513 2839.69 512.555C2836.73 545.943 2866.7 571.668 2909.2 542.68Z" fill="#F4B400"/>
</svg>
