<svg width="4581" height="973" viewBox="0 0 4581 973" fill="none" xmlns="http://www.w3.org/2000/svg">
<path d="M516.671 55.8258L618.81 288.789C622.654 297.555 628.78 305.129 636.548 310.721C644.316 316.314 653.442 319.72 662.975 320.584L911.797 342.894C939.95 346.991 951.181 381.519 930.768 401.4L743.336 558.859C728.159 571.607 721.253 591.64 725.427 610.991L779.911 866.036C784.692 894.037 755.325 915.436 730.132 902.156L512.953 774.975C504.762 770.165 495.436 767.629 485.938 767.629C476.44 767.629 467.114 770.165 458.924 774.975L241.745 902.081C216.627 915.284 187.184 893.961 191.965 865.96L246.449 610.915C250.547 591.565 243.718 571.531 228.541 558.783L41.0322 401.476C20.6954 381.67 31.9262 347.067 60.0032 342.97L308.826 320.66C318.358 319.796 327.485 316.39 335.253 310.797C343.021 305.205 349.146 297.631 352.99 288.865L455.129 55.9017C467.802 30.4048 504.074 30.4048 516.671 55.8258Z" fill="#FDD835"/>
<path d="M509.291 302.785L491.989 131.136C491.306 121.574 489.333 105.184 504.662 105.184C516.803 105.184 523.405 130.453 523.405 130.453L575.309 268.258C594.887 320.693 586.844 338.678 567.949 349.301C546.246 361.443 514.223 351.957 509.291 302.785Z" fill="#FFFF8D"/>
<path d="M723.326 543.598L872.21 427.42C879.57 421.274 892.85 411.485 882.226 400.33C873.803 391.527 851.038 404.2 851.038 404.2L720.746 455.118C681.894 468.549 656.093 488.431 653.817 513.472C650.857 546.861 680.831 572.586 723.326 543.598Z" fill="#F4B400"/>
<path d="M1609.4 55.8258L1711.54 288.789C1715.38 297.555 1721.5 305.129 1729.27 310.721C1737.04 316.314 1746.17 319.72 1755.7 320.584L2004.52 342.894C2032.67 346.991 2043.91 381.519 2023.49 401.4L1836.06 558.859C1820.88 571.607 1813.98 591.64 1818.15 610.991L1872.64 866.036C1877.42 894.037 1848.05 915.436 1822.86 902.156L1605.68 774.975C1597.49 770.165 1588.16 767.629 1578.66 767.629C1569.16 767.629 1559.84 770.165 1551.65 774.975L1334.47 902.081C1309.35 915.284 1279.91 893.961 1284.69 865.96L1339.17 610.915C1343.27 591.565 1336.44 571.531 1321.27 558.783L1133.76 401.476C1113.42 381.67 1124.65 347.067 1152.73 342.97L1401.55 320.66C1411.08 319.796 1420.21 316.39 1427.98 310.797C1435.75 305.205 1441.87 297.631 1445.71 288.865L1547.85 55.9017C1560.53 30.4048 1596.8 30.4048 1609.4 55.8258Z" fill="#FDD835"/>
<path d="M1602.01 302.785L1584.71 131.136C1584.03 121.574 1582.06 105.184 1597.38 105.184C1609.53 105.184 1616.13 130.453 1616.13 130.453L1668.03 268.258C1687.61 320.693 1679.57 338.678 1660.67 349.301C1638.97 361.443 1606.95 351.957 1602.01 302.785Z" fill="#FFFF8D"/>
<path d="M1816.03 543.598L1964.91 427.42C1972.27 421.274 1985.55 411.485 1974.93 400.33C1966.5 391.527 1943.74 404.2 1943.74 404.2L1813.45 455.118C1774.59 468.549 1748.79 488.431 1746.52 513.472C1743.56 546.861 1773.53 572.586 1816.03 543.598Z" fill="#F4B400"/>
<path d="M2702.12 55.8258L2804.26 288.789C2808.1 297.555 2814.23 305.129 2822 310.721C2829.77 316.314 2838.89 319.72 2848.42 320.584L3097.25 342.894C3125.4 346.991 3136.63 381.519 3116.22 401.4L2928.78 558.859C2913.61 571.607 2906.7 591.64 2910.88 610.991L2965.36 866.036C2970.14 894.037 2940.77 915.436 2915.58 902.156L2698.4 774.975C2690.21 770.165 2680.89 767.629 2671.39 767.629C2661.89 767.629 2652.56 770.165 2644.37 774.975L2427.19 902.081C2402.08 915.284 2372.63 893.961 2377.41 865.96L2431.9 610.915C2436 591.565 2429.17 571.531 2413.99 558.783L2226.48 401.476C2206.14 381.67 2217.38 347.067 2245.45 342.97L2494.27 320.66C2503.81 319.796 2512.93 316.39 2520.7 310.797C2528.47 305.205 2534.6 297.631 2538.44 288.865L2640.58 55.9017C2653.25 30.4048 2689.52 30.4048 2702.12 55.8258Z" fill="#FDD835"/>
<path d="M2694.74 302.785L2677.44 131.136C2676.75 121.574 2674.78 105.184 2690.11 105.184C2702.25 105.184 2708.85 130.453 2708.85 130.453L2760.76 268.258C2780.33 320.693 2772.29 338.678 2753.4 349.301C2731.69 361.443 2699.67 351.957 2694.74 302.785Z" fill="#FFFF8D"/>
<path d="M2908.78 543.598L3057.66 427.42C3065.02 421.274 3078.3 411.485 3067.68 400.33C3059.25 391.527 3036.49 404.2 3036.49 404.2L2906.2 455.118C2867.34 468.549 2841.54 488.431 2839.27 513.472C2836.31 546.861 2866.28 572.586 2908.78 543.598Z" fill="#F4B400"/>
<path d="M3794.84 55.8258L3896.98 288.789C3900.83 297.555 3906.95 305.129 3914.72 310.721C3922.49 316.314 3931.62 319.72 3941.15 320.584L4189.97 342.894C4218.12 346.991 4229.35 381.519 4208.94 401.4L4021.51 558.859C4006.33 571.607 3999.43 591.64 4003.6 610.991L4058.09 866.036C4062.87 894.037 4033.5 915.436 4008.31 902.156L3791.13 774.975C3782.94 770.165 3773.61 767.629 3764.11 767.629C3754.61 767.629 3745.29 770.165 3737.1 774.975L3519.92 902.081C3494.8 915.284 3465.36 893.961 3470.14 865.96L3524.62 610.915C3528.72 591.565 3521.89 571.531 3506.71 558.783L3319.21 401.476C3298.87 381.67 3310.1 347.067 3338.18 342.97L3587 320.66C3596.53 319.796 3605.66 316.39 3613.43 310.797C3621.19 305.205 3627.32 297.631 3631.16 288.865L3733.3 55.9017C3745.98 30.4048 3782.25 30.4048 3794.84 55.8258Z" fill="#FDD835"/>
<path d="M3787.47 302.785L3770.16 131.136C3769.48 121.574 3767.51 105.184 3782.84 105.184C3794.98 105.184 3801.58 130.453 3801.58 130.453L3853.49 268.258C3873.06 320.693 3865.02 338.678 3846.12 349.301C3824.42 361.443 3792.4 351.957 3787.47 302.785Z" fill="#FFFF8D"/>
<path d="M4001.48 543.598L4150.36 427.42C4157.72 421.274 4171 411.485 4160.38 400.33C4151.95 391.527 4129.19 404.2 4129.19 404.2L3998.9 455.118C3960.04 468.549 3934.24 488.431 3931.97 513.472C3929.01 546.861 3958.98 572.586 4001.48 543.598Z" fill="#F4B400"/>
</svg>
