<svg width="5343" height="972" viewBox="0 0 5343 972" fill="none" xmlns="http://www.w3.org/2000/svg">
<path d="M516.38 54.8532L618.519 287.816C622.363 296.582 628.489 304.156 636.257 309.749C644.025 315.341 653.151 318.747 662.684 319.611L911.506 341.921C939.659 346.019 950.89 380.546 930.477 400.427L743.045 557.886C727.868 570.634 720.962 590.668 725.136 610.018L779.62 865.063C784.401 893.064 755.034 914.463 729.841 901.184L512.662 774.003C504.471 769.193 495.145 766.657 485.647 766.657C476.149 766.657 466.823 769.193 458.633 774.003L241.454 901.108C216.336 914.312 186.893 892.988 191.674 864.987L246.158 609.942C250.256 590.592 243.426 570.559 228.25 557.81L40.7412 400.503C20.4044 380.698 31.6352 346.095 59.7121 341.997L308.535 319.687C318.067 318.823 327.194 315.417 334.962 309.825C342.73 304.232 348.855 296.658 352.699 287.892L454.838 54.9291C467.511 29.4321 503.783 29.4321 516.38 54.8532Z" fill="#FDD835"/>
<path d="M509.001 301.81L491.7 130.161C491.017 120.6 489.044 104.209 504.373 104.209C516.514 104.209 523.116 129.478 523.116 129.478L575.02 267.283C594.598 319.719 586.555 337.703 567.66 348.327C545.957 360.468 513.934 350.983 509.001 301.81Z" fill="#FFFF8D"/>
<path d="M723.039 542.626L871.923 426.448C879.283 420.301 892.563 410.512 881.939 399.357C873.516 390.555 850.751 403.227 850.751 403.227L720.459 454.145C681.606 467.577 655.806 487.458 653.529 512.5C650.57 545.889 680.544 571.613 723.039 542.626Z" fill="#F4B400"/>
<path d="M1609.11 54.8532L1711.25 287.816C1715.09 296.582 1721.22 304.156 1728.98 309.749C1736.75 315.341 1745.88 318.747 1755.41 319.611L2004.23 341.921C2032.39 346.019 2043.62 380.546 2023.2 400.427L1835.77 557.886C1820.59 570.634 1813.69 590.668 1817.86 610.018L1872.35 865.063C1877.13 893.064 1847.76 914.463 1822.57 901.184L1605.39 774.003C1597.2 769.193 1587.87 766.657 1578.37 766.657C1568.88 766.657 1559.55 769.193 1551.36 774.003L1334.18 901.108C1309.06 914.312 1279.62 892.988 1284.4 864.987L1338.88 609.942C1342.98 590.592 1336.15 570.559 1320.98 557.81L1133.47 400.503C1113.13 380.698 1124.36 346.095 1152.44 341.997L1401.26 319.687C1410.79 318.823 1419.92 315.417 1427.69 309.825C1435.46 304.232 1441.58 296.658 1445.43 287.892L1547.56 54.9291C1560.24 29.4321 1596.51 29.4321 1609.11 54.8532Z" fill="#FDD835"/>
<path d="M1601.72 301.81L1584.42 130.161C1583.74 120.6 1581.77 104.209 1597.1 104.209C1609.24 104.209 1615.84 129.478 1615.84 129.478L1667.74 267.283C1687.32 319.719 1679.28 337.703 1660.38 348.327C1638.68 360.468 1606.66 350.983 1601.72 301.81Z" fill="#FFFF8D"/>
<path d="M1815.74 542.626L1964.62 426.448C1971.98 420.301 1985.26 410.512 1974.64 399.357C1966.22 390.555 1943.45 403.227 1943.45 403.227L1813.16 454.145C1774.31 467.577 1748.51 487.458 1746.23 512.5C1743.27 545.889 1773.24 571.613 1815.74 542.626Z" fill="#F4B400"/>
<path d="M2701.83 54.8532L2803.97 287.816C2807.81 296.582 2813.94 304.156 2821.71 309.749C2829.48 315.341 2838.6 318.747 2848.13 319.611L3096.96 341.921C3125.11 346.019 3136.34 380.546 3115.93 400.427L2928.5 557.886C2913.32 570.634 2906.41 590.668 2910.59 610.018L2965.07 865.063C2969.85 893.064 2940.49 914.463 2915.29 901.184L2698.11 774.003C2689.92 769.193 2680.6 766.657 2671.1 766.657C2661.6 766.657 2652.27 769.193 2644.08 774.003L2426.9 901.108C2401.79 914.312 2372.34 892.988 2377.13 864.987L2431.61 609.942C2435.71 590.592 2428.88 570.559 2413.7 557.81L2226.19 400.503C2205.86 380.698 2217.09 346.095 2245.16 341.997L2493.99 319.687C2503.52 318.823 2512.64 315.417 2520.41 309.825C2528.18 304.232 2534.31 296.658 2538.15 287.892L2640.29 54.9291C2652.96 29.4321 2689.23 29.4321 2701.83 54.8532Z" fill="#FDD835"/>
<path d="M2694.45 301.81L2677.15 130.161C2676.46 120.6 2674.49 104.209 2689.82 104.209C2701.96 104.209 2708.56 129.478 2708.56 129.478L2760.47 267.283C2780.05 319.719 2772 337.703 2753.11 348.327C2731.4 360.468 2699.38 350.983 2694.45 301.81Z" fill="#FFFF8D"/>
<path d="M2908.49 542.626L3057.37 426.448C3064.73 420.301 3078.01 410.512 3067.39 399.357C3058.96 390.555 3036.2 403.227 3036.2 403.227L2905.91 454.145C2867.05 467.577 2841.25 487.458 2838.98 512.5C2836.02 545.889 2865.99 571.613 2908.49 542.626Z" fill="#F4B400"/>
<path d="M3794.56 54.8532L3896.7 287.816C3900.54 296.582 3906.66 304.156 3914.43 309.749C3922.2 315.341 3931.33 318.747 3940.86 319.611L4189.68 341.921C4217.83 346.019 4229.07 380.546 4208.65 400.427L4021.22 557.886C4006.04 570.634 3999.14 590.668 4003.31 610.018L4057.8 865.063C4062.58 893.064 4033.21 914.463 4008.02 901.184L3790.84 774.003C3782.65 769.193 3773.32 766.657 3763.82 766.657C3754.32 766.657 3745 769.193 3736.81 774.003L3519.63 901.108C3494.51 914.312 3465.07 892.988 3469.85 864.987L3524.33 609.942C3528.43 590.592 3521.6 570.559 3506.43 557.81L3318.92 400.503C3298.58 380.698 3309.81 346.095 3337.89 341.997L3586.71 319.687C3596.24 318.823 3605.37 315.417 3613.14 309.825C3620.91 304.232 3627.03 296.658 3630.87 287.892L3733.01 54.9291C3745.69 29.4321 3781.96 29.4321 3794.56 54.8532Z" fill="#FDD835"/>
<path d="M3787.18 301.81L3769.87 130.161C3769.19 120.6 3767.22 104.209 3782.55 104.209C3794.69 104.209 3801.29 129.478 3801.29 129.478L3853.19 267.283C3872.77 319.719 3864.73 337.703 3845.83 348.327C3824.13 360.468 3792.11 350.983 3787.18 301.81Z" fill="#FFFF8D"/>
<path d="M4001.19 542.626L4150.07 426.448C4157.43 420.301 4170.71 410.512 4160.09 399.357C4151.66 390.555 4128.9 403.227 4128.9 403.227L3998.61 454.145C3959.75 467.577 3933.95 487.458 3931.68 512.5C3928.72 545.889 3958.69 571.613 4001.19 542.626Z" fill="#F4B400"/>
<path d="M4887.28 54.8532L4989.42 287.816C4993.26 296.582 4999.39 304.156 5007.16 309.749C5014.93 315.341 5024.05 318.747 5033.58 319.611L5282.41 341.921C5310.56 346.019 5321.79 380.546 5301.38 400.427L5113.94 557.886C5098.77 570.634 5091.86 590.668 5096.04 610.018L5150.52 865.063C5155.3 893.064 5125.93 914.463 5100.74 901.184L4883.56 774.003C4875.37 769.193 4866.05 766.657 4856.55 766.657C4847.05 766.657 4837.72 769.193 4829.53 774.003L4612.35 901.108C4587.24 914.312 4557.79 892.988 4562.57 864.987L4617.06 609.942C4621.16 590.592 4614.33 570.559 4599.15 557.81L4411.64 400.503C4391.3 380.698 4402.54 346.095 4430.61 341.997L4679.44 319.687C4688.97 318.823 4698.09 315.417 4705.86 309.825C4713.63 304.232 4719.76 296.658 4723.6 287.892L4825.74 54.9291C4838.41 29.4321 4874.68 29.4321 4887.28 54.8532Z" fill="#FDD835"/>
<path d="M4879.9 301.81L4862.6 130.161C4861.92 120.6 4859.94 104.209 4875.27 104.209C4887.41 104.209 4894.01 129.478 4894.01 129.478L4945.92 267.283C4965.5 319.719 4957.45 337.703 4938.56 348.327C4916.86 360.468 4884.83 350.983 4879.9 301.81Z" fill="#FFFF8D"/>
<path d="M5093.94 542.626L5242.82 426.448C5250.18 420.301 5263.46 410.512 5252.84 399.357C5244.42 390.555 5221.65 403.227 5221.65 403.227L5091.36 454.145C5052.51 467.577 5026.71 487.458 5024.43 512.5C5021.47 545.889 5051.44 571.613 5093.94 542.626Z" fill="#F4B400"/>
</svg>
