<svg width="5362" height="1086" viewBox="0 0 5362 1086" fill="none" xmlns="http://www.w3.org/2000/svg">
<path d="M1 543.349C372.758 487.272 473.599 345.059 543.349 1C615.804 376.926 741.832 487.024 1085 543.698C714.164 608.088 606.098 736.462 543.349 1085.7C462.5 701.207 336.479 592.037 1 543.349Z" fill="black" stroke="black" stroke-width="0.698004"/>
<path fill-rule="evenodd" clip-rule="evenodd" d="M728.965 325.834C747.712 317.661 767.202 308.484 787.65 298.35V399.044C786.486 399.572 785.325 400.097 784.167 400.619L506.469 638.438C595.127 631.121 677.57 646.582 787.65 686.956V787.65C598.467 712.525 491.073 722.502 298.35 787.65V686.956C298.476 686.913 298.603 686.871 298.729 686.829L556.035 466.473C475.995 470.471 398.644 448.701 298.35 399.044V298.35C464.479 388.873 566.936 392.855 711.811 333.115L728.965 325.834Z" fill="#C6FF53"/>
<path d="M1172.58 280.406H1370.58V312.029L1206.2 443.647L1202.78 433.106H1370.58V464.729H1172.58V433.106L1336.96 301.488L1340.38 312.029H1172.58V280.406ZM1579.77 383.251V280.406H1617.66V387.239C1617.66 399.394 1615.85 410.03 1612.25 419.147C1608.83 428.263 1603.89 435.955 1597.43 442.223C1590.97 448.49 1583.38 453.618 1574.64 457.607C1566.09 461.405 1556.69 464.159 1546.44 465.868C1536.37 467.578 1525.74 468.432 1514.53 468.432C1502.94 468.432 1491.93 467.578 1481.48 465.868C1471.04 464.159 1461.45 461.405 1452.71 457.607C1444.16 453.618 1436.75 448.49 1430.49 442.223C1424.22 435.955 1419.28 428.263 1415.67 419.147C1412.25 410.03 1410.55 399.394 1410.55 387.239V280.406H1448.44V383.251C1448.44 397.685 1451.28 408.701 1456.98 416.298C1462.68 423.705 1470.47 428.833 1480.34 431.682C1490.41 434.341 1501.8 435.67 1514.53 435.67C1526.87 435.67 1537.89 434.341 1547.58 431.682C1557.45 428.833 1565.24 423.705 1570.94 416.298C1576.83 408.701 1579.77 397.685 1579.77 383.251ZM1661.49 464.729V280.406H1767.76C1792.45 280.406 1811.15 284.584 1823.88 292.941C1836.79 301.108 1843.25 313.358 1843.25 329.692C1843.25 340.138 1840.69 348.399 1835.56 354.477C1830.43 360.365 1823.12 364.733 1813.62 367.582C1804.32 370.431 1793.3 372.235 1780.58 372.995L1781.71 371.001C1791.02 371.19 1799.76 371.855 1807.92 372.995C1816.28 374.134 1823.59 376.223 1829.86 379.262C1836.13 382.301 1841.07 386.574 1844.68 392.082C1848.28 397.4 1850.09 404.427 1850.09 413.164C1850.09 424.56 1847.05 434.056 1840.97 441.653C1834.89 449.06 1826.44 454.663 1815.62 458.461C1804.79 462.26 1792.26 464.349 1778.01 464.729H1661.49ZM1699.38 433.391H1774.02C1785.99 433.391 1795.2 431.492 1801.66 427.693C1808.11 423.705 1811.34 417.437 1811.34 408.891C1811.34 402.623 1809.44 398.065 1805.65 395.216C1801.85 392.367 1796.81 390.658 1790.55 390.088C1784.28 389.328 1777.54 388.949 1770.32 388.949H1699.38V433.391ZM1699.38 358.465H1766.33C1778.3 358.465 1787.51 356.756 1793.97 353.337C1800.42 349.729 1803.65 343.651 1803.65 335.105C1803.65 326.558 1800.42 320.575 1793.97 317.157C1787.51 313.548 1778.96 311.744 1768.33 311.744H1699.38V358.465ZM2063.36 280.406L1982.45 406.612V464.729H1944.27V406.612L1863.36 280.406H1907.24L1975.33 390.658H1952.53L2019.48 280.406H2063.36ZM2077.32 280.406H2271.61V312.029H2077.32V280.406ZM2155.66 308.04H2193.55V464.729H2155.66V308.04ZM2337.04 387.809V433.106H2479.2V464.729H2299.15V280.406H2478.92V312.029H2337.04V357.896H2453.28V387.809H2337.04Z" fill="black"/>
<path d="M2608.76 280.406H2803.06V312.029H2608.76V280.406ZM2687.11 308.04H2725V464.729H2687.11V308.04ZM2868.49 387.809V433.106H3010.65V464.729H2830.6V280.406H3010.36V312.029H2868.49V357.896H2984.72V387.809H2868.49ZM3262.97 398.35C3261.26 413.164 3256.04 425.794 3247.3 436.24C3238.57 446.686 3226.7 454.663 3211.69 460.171C3196.69 465.679 3178.84 468.432 3158.13 468.432C3140.85 468.432 3124.99 466.438 3110.56 462.45C3096.31 458.461 3083.97 452.479 3073.52 444.502C3063.27 436.525 3055.29 426.649 3049.59 414.873C3043.89 402.908 3041.04 388.948 3041.04 372.995C3041.04 357.041 3043.89 343.081 3049.59 331.116C3055.29 319.151 3063.27 309.18 3073.52 301.203C3083.97 293.036 3096.31 286.958 3110.56 282.97C3124.99 278.792 3140.85 276.702 3158.13 276.702C3178.84 276.702 3196.69 279.551 3211.69 285.249C3226.89 290.947 3238.85 299.114 3247.59 309.749C3256.33 320.195 3261.45 332.92 3262.97 347.925H3225.37C3222.9 339.948 3218.72 333.11 3212.83 327.413C3207.13 321.525 3199.73 317.062 3190.61 314.023C3181.49 310.984 3170.67 309.465 3158.13 309.465C3142.56 309.465 3128.89 311.934 3117.11 316.872C3105.33 321.62 3096.22 328.742 3089.76 338.238C3083.3 347.545 3080.07 359.13 3080.07 372.995C3080.07 386.669 3083.3 398.16 3089.76 407.466C3096.22 416.773 3105.33 423.895 3117.11 428.833C3128.89 433.581 3142.56 435.955 3158.13 435.955C3170.67 435.955 3181.4 434.436 3190.33 431.397C3199.44 428.358 3206.85 423.99 3212.55 418.292C3218.44 412.594 3222.71 405.947 3225.37 398.35H3262.97ZM3333.27 356.471H3479.42V388.094H3333.27V356.471ZM3473.15 280.406H3511.04V464.729H3473.15V280.406ZM3299.94 280.406H3337.83V464.729H3299.94V280.406Z" fill="black"/>
<path d="M3649.18 402.623H3687.64C3688.4 409.081 3691.34 414.968 3696.47 420.286C3701.79 425.414 3708.72 429.498 3717.27 432.536C3725.82 435.385 3735.41 436.81 3746.04 436.81C3755.73 436.81 3763.71 435.765 3769.97 433.676C3776.24 431.587 3780.89 428.643 3783.93 424.844C3786.97 421.046 3788.49 416.488 3788.49 411.17C3788.49 406.042 3786.59 402.148 3782.79 399.489C3779 396.64 3773.01 394.361 3764.85 392.652C3756.68 390.753 3745.95 388.854 3732.65 386.954C3722.21 385.435 3712.33 383.346 3703.03 380.687C3693.72 377.838 3685.46 374.229 3678.24 369.861C3671.21 365.493 3665.61 360.175 3661.43 353.907C3657.44 347.45 3655.45 339.853 3655.45 331.116C3655.45 320.29 3658.49 310.794 3664.57 302.627C3670.83 294.46 3680.04 288.098 3692.2 283.54C3704.35 278.981 3719.26 276.702 3736.93 276.702C3763.52 276.702 3783.93 282.4 3798.18 293.796C3812.61 305.001 3819.64 320.48 3819.26 340.233H3782.22C3781.46 329.027 3776.72 320.955 3767.98 316.017C3759.43 311.079 3748.61 308.61 3735.5 308.61C3723.35 308.61 3713.28 310.414 3705.3 314.023C3697.52 317.631 3693.62 323.804 3693.62 332.541C3693.62 335.959 3694.57 338.998 3696.47 341.657C3698.37 344.126 3701.6 346.31 3706.16 348.209C3710.72 350.109 3716.89 351.913 3724.68 353.622C3732.46 355.332 3742.15 357.041 3753.74 358.75C3764.56 360.27 3774.34 362.359 3783.08 365.018C3792.01 367.487 3799.6 370.811 3805.87 374.989C3812.33 378.977 3817.27 384.105 3820.68 390.373C3824.1 396.64 3825.81 404.332 3825.81 413.449C3825.81 424.655 3822.87 434.436 3816.98 442.792C3811.28 450.959 3802.36 457.322 3790.2 461.88C3778.24 466.438 3762.66 468.717 3743.48 468.717C3729.8 468.717 3717.74 467.293 3707.3 464.444C3696.85 461.405 3687.83 457.417 3680.23 452.479C3672.64 447.541 3666.46 442.128 3661.72 436.24C3656.97 430.352 3653.55 424.465 3651.46 418.577C3649.56 412.689 3648.8 407.371 3649.18 402.623ZM3968.92 468.432C3944.42 468.432 3923.43 464.634 3905.96 457.037C3888.68 449.25 3875.38 438.234 3866.08 423.99C3856.96 409.745 3852.4 392.652 3852.4 372.71C3852.4 352.578 3856.96 335.389 3866.08 321.145C3875.38 306.901 3888.68 295.98 3905.96 288.383C3923.43 280.596 3944.42 276.702 3968.92 276.702C3993.61 276.702 4014.6 280.596 4031.88 288.383C4049.17 295.98 4062.37 306.901 4071.48 321.145C4080.79 335.389 4085.44 352.578 4085.44 372.71C4085.44 392.652 4080.79 409.745 4071.48 423.99C4062.37 438.234 4049.17 449.25 4031.88 457.037C4014.6 464.634 3993.61 468.432 3968.92 468.432ZM3968.92 435.67C3984.12 435.67 3997.41 433.391 4008.81 428.833C4020.39 424.275 4029.41 417.342 4035.87 408.036C4042.52 398.73 4045.84 386.954 4045.84 372.71C4045.84 358.465 4042.52 346.69 4035.87 337.384C4029.41 328.077 4020.39 321.145 4008.81 316.587C3997.41 311.839 3984.12 309.465 3968.92 309.465C3953.92 309.465 3940.53 311.839 3928.75 316.587C3916.98 321.145 3907.77 328.077 3901.12 337.384C3894.47 346.69 3891.15 358.465 3891.15 372.71C3891.15 386.954 3894.47 398.73 3901.12 408.036C3907.77 417.342 3916.98 424.275 3928.75 428.833C3940.53 433.391 3953.92 435.67 3968.92 435.67ZM4160.32 280.406V433.106H4282.82V464.729H4122.43V280.406H4160.32ZM4482.51 383.251V280.406H4520.4V387.239C4520.4 399.394 4518.59 410.03 4514.98 419.147C4511.56 428.263 4506.63 435.955 4500.17 442.223C4493.71 448.49 4486.11 453.618 4477.38 457.607C4468.83 461.405 4459.43 464.159 4449.17 465.868C4439.11 467.578 4428.47 468.432 4417.27 468.432C4405.68 468.432 4394.66 467.578 4384.22 465.868C4373.77 464.159 4364.18 461.405 4355.44 457.607C4346.9 453.618 4339.49 448.49 4333.22 442.223C4326.96 435.955 4322.02 428.263 4318.41 419.147C4314.99 410.03 4313.28 399.394 4313.28 387.239V280.406H4351.17V383.251C4351.17 397.685 4354.02 408.701 4359.72 416.298C4365.42 423.705 4373.2 428.833 4383.08 431.682C4393.15 434.341 4404.54 435.67 4417.27 435.67C4429.61 435.67 4440.63 434.341 4450.31 431.682C4460.19 428.833 4467.98 423.705 4473.67 416.298C4479.56 408.701 4482.51 397.685 4482.51 383.251ZM4547.99 280.406H4742.28V312.029H4547.99V280.406ZM4626.33 308.04H4664.22V464.729H4626.33V308.04ZM4775.24 280.406H4813.13V464.729H4775.24V280.406ZM4971.87 468.432C4947.37 468.432 4926.39 464.634 4908.91 457.037C4891.63 449.25 4878.34 438.234 4869.03 423.99C4859.91 409.745 4855.36 392.652 4855.36 372.71C4855.36 352.578 4859.91 335.389 4869.03 321.145C4878.34 306.901 4891.63 295.98 4908.91 288.383C4926.39 280.596 4947.37 276.702 4971.87 276.702C4996.57 276.702 5017.55 280.596 5034.84 288.383C5052.12 295.98 5065.32 306.901 5074.43 321.145C5083.74 335.389 5088.39 352.578 5088.39 372.71C5088.39 392.652 5083.74 409.745 5074.43 423.99C5065.32 438.234 5052.12 449.25 5034.84 457.037C5017.55 464.634 4996.57 468.432 4971.87 468.432ZM4971.87 435.67C4987.07 435.67 5000.36 433.391 5011.76 428.833C5023.34 424.275 5032.37 417.342 5038.82 408.036C5045.47 398.73 5048.79 386.954 5048.79 372.71C5048.79 358.465 5045.47 346.69 5038.82 337.384C5032.37 328.077 5023.34 321.145 5011.76 316.587C5000.36 311.839 4987.07 309.465 4971.87 309.465C4956.87 309.465 4943.48 311.839 4931.71 316.587C4919.93 321.145 4910.72 328.077 4904.07 337.384C4897.42 346.69 4894.1 358.465 4894.1 372.71C4894.1 386.954 4897.42 398.73 4904.07 408.036C4910.72 417.342 4919.93 424.275 4931.71 428.833C4943.48 433.391 4956.87 435.67 4971.87 435.67ZM5312.27 427.124L5300.3 431.967V280.406H5338.19V464.729H5300.3L5151.31 319.151L5163.27 314.308V464.729H5125.38V280.406H5163.27L5312.27 427.124Z" fill="black"/>
<path d="M1211.92 804.5L1159.28 665.616H1181.75L1226.69 786.952H1220.27L1263.28 665.616H1286.18L1329.19 786.952H1322.99L1367.93 665.616H1389.75L1337.75 804.5H1314.43L1271.84 681.024H1277.83L1235.03 804.5H1211.92ZM1429.6 725.749H1524.4V744.367H1429.6V725.749ZM1522.04 665.616H1542.8V804.5H1522.04V665.616ZM1410.98 665.616H1431.52V804.5H1410.98V665.616ZM1597.25 744.367V786.096H1686.7V804.5H1576.7V665.616H1686.48V684.02H1597.25V726.391H1670.22V744.367H1597.25ZM1716.51 804.5V665.616H1787.99C1797.97 665.616 1806.53 667.114 1813.67 670.11C1820.94 672.963 1826.5 677.386 1830.36 683.378C1834.21 689.227 1836.13 696.717 1836.13 705.848C1836.13 712.125 1835.06 717.475 1832.92 721.897C1830.93 726.177 1828.15 729.744 1824.58 732.597C1821.01 735.45 1816.8 737.662 1811.95 739.231C1807.1 740.8 1801.9 741.799 1796.33 742.227L1794.83 740.943C1803.25 741.228 1810.31 742.156 1816.02 743.725C1821.73 745.294 1826.08 748.148 1829.07 752.285C1832.21 756.279 1833.78 762.271 1833.78 770.261V804.5H1813.02V770.903C1813.02 765.339 1812.1 760.987 1810.24 757.849C1808.39 754.71 1805.18 752.499 1800.61 751.215C1796.05 749.931 1789.63 749.289 1781.35 749.289H1737.05V804.5H1716.51ZM1737.05 731.313H1787.99C1797.12 731.313 1803.96 729.03 1808.53 724.465C1813.24 719.9 1815.59 713.908 1815.59 706.49C1815.59 699.356 1813.24 693.864 1808.53 690.012C1803.96 686.16 1797.12 684.234 1787.99 684.234H1737.05V731.313ZM1886.68 744.367V786.096H1976.14V804.5H1866.14V665.616H1975.92V684.02H1886.68V726.391H1959.66V744.367H1886.68ZM2057.25 665.616H2077.79V804.5H2057.25V665.616ZM2171.51 665.616C2185.92 665.616 2197.98 667.471 2207.68 671.18C2217.52 674.747 2225.37 679.74 2231.22 686.16C2237.21 692.58 2241.49 699.927 2244.06 708.201C2246.63 716.476 2247.91 725.25 2247.91 734.523C2247.91 743.654 2246.48 752.427 2243.63 760.845C2240.92 769.262 2236.5 776.752 2230.36 783.314C2224.37 789.877 2216.52 795.084 2206.82 798.936C2197.12 802.645 2185.35 804.5 2171.51 804.5H2115.87V665.616H2171.51ZM2136.42 785.882H2171.3C2182.28 785.882 2191.34 784.456 2198.48 781.602C2205.61 778.606 2211.24 774.683 2215.38 769.833C2219.66 764.839 2222.66 759.275 2224.37 753.141C2226.22 747.006 2227.15 740.8 2227.15 734.523C2227.15 728.103 2226.22 721.897 2224.37 715.905C2222.66 709.913 2219.66 704.564 2215.38 699.856C2211.24 695.005 2205.61 691.224 2198.48 688.514C2191.34 685.66 2182.28 684.234 2171.3 684.234H2136.42V785.882ZM2296.29 744.367V786.096H2385.74V804.5H2275.74V665.616H2385.52V684.02H2296.29V726.391H2369.26V744.367H2296.29ZM2432.89 770.047V751.643H2507.36V770.047H2432.89ZM2402.71 804.5L2459.42 665.616H2481.25L2538.39 804.5H2516.13L2466.48 679.098H2474.19L2424.75 804.5H2402.71ZM2549.29 758.919H2568.98C2569.4 764.483 2571.26 769.547 2574.54 774.112C2577.96 778.535 2582.53 782.03 2588.24 784.598C2594.09 787.166 2600.86 788.45 2608.57 788.45C2615.27 788.45 2620.84 787.523 2625.26 785.668C2629.68 783.814 2632.96 781.317 2635.1 778.178C2637.38 774.897 2638.53 771.045 2638.53 766.623C2638.53 762.2 2637.31 758.705 2634.89 756.137C2632.46 753.426 2628.82 751.215 2623.97 749.503C2619.12 747.648 2613.13 745.865 2606 744.153C2599.72 742.584 2593.51 740.729 2587.38 738.589C2581.39 736.306 2575.82 733.524 2570.69 730.243C2565.7 726.962 2561.63 723.039 2558.49 718.473C2555.49 713.765 2554 708.13 2554 701.568C2554 694.577 2555.92 688.228 2559.77 682.522C2563.63 676.673 2569.26 672.036 2576.68 668.612C2584.24 665.045 2593.37 663.262 2604.07 663.262C2620.62 663.262 2633.1 667.399 2641.52 675.674C2650.08 683.949 2654.22 695.005 2653.93 708.843H2634.67C2634.25 699.142 2631.18 692.223 2625.47 688.086C2619.77 683.806 2612.35 681.666 2603.22 681.666C2595.37 681.666 2588.66 683.307 2583.1 686.588C2577.54 689.726 2574.75 694.72 2574.75 701.568C2574.75 704.564 2575.4 707.203 2576.68 709.485C2577.96 711.625 2580.1 713.623 2583.1 715.477C2586.1 717.332 2590.09 719.115 2595.08 720.827C2600.22 722.539 2606.57 724.394 2614.13 726.391C2619.84 727.675 2625.33 729.316 2630.61 731.313C2636.03 733.31 2640.88 735.807 2645.16 738.803C2649.44 741.799 2652.79 745.651 2655.22 750.359C2657.79 755.067 2659.07 760.845 2659.07 767.693C2659.07 774.968 2657.29 781.602 2653.72 787.594C2650.15 793.444 2644.59 798.151 2637.03 801.718C2629.61 805.142 2619.98 806.854 2608.14 806.854C2598.72 806.854 2590.52 805.641 2583.53 803.216C2576.68 800.791 2570.9 797.652 2566.19 793.8C2561.63 789.948 2557.99 785.811 2555.28 781.388C2552.71 776.966 2550.93 772.757 2549.93 768.763C2549.07 764.768 2548.86 761.487 2549.29 758.919ZM2912.86 804.5L2858.71 665.616H2881.18L2927.84 788.45H2921.42L2968.07 665.616H2990.11L2936.4 804.5H2912.86ZM3072.31 806.854C3057.9 806.854 3045.06 803.929 3033.79 798.08C3022.66 792.231 3013.89 783.956 3007.47 773.256C3001.19 762.557 2998.05 749.86 2998.05 735.165C2998.05 720.328 3001.19 707.559 3007.47 696.86C3013.89 686.16 3022.66 677.885 3033.79 672.036C3045.06 666.187 3057.9 663.262 3072.31 663.262C3086.86 663.262 3099.7 666.187 3110.83 672.036C3121.96 677.885 3130.73 686.16 3137.15 696.86C3143.57 707.559 3146.78 720.328 3146.78 735.165C3146.78 749.86 3143.57 762.557 3137.15 773.256C3130.73 783.956 3121.96 792.231 3110.83 798.08C3099.7 803.929 3086.86 806.854 3072.31 806.854ZM3072.31 788.236C3082.58 788.236 3091.71 786.239 3099.7 782.244C3107.69 778.25 3114.04 772.329 3118.75 764.483C3123.45 756.636 3125.81 746.864 3125.81 735.165C3125.81 723.467 3123.45 713.694 3118.75 705.848C3114.04 698.001 3107.69 692.08 3099.7 688.086C3091.71 683.949 3082.58 681.88 3072.31 681.88C3062.32 681.88 3053.26 683.949 3045.13 688.086C3037 692.08 3030.58 698.001 3025.87 705.848C3021.16 713.694 3018.81 723.467 3018.81 735.165C3018.81 746.864 3021.16 756.636 3025.87 764.483C3030.58 772.329 3037 778.25 3045.13 782.244C3053.26 786.239 3062.32 788.236 3072.31 788.236ZM3195.12 665.616V786.096H3276.86V804.5H3174.57V665.616H3195.12ZM3334.37 804.5L3280.23 665.616H3302.7L3349.35 788.45H3342.93L3389.58 665.616H3411.62L3357.91 804.5H3334.37ZM3453.42 744.367V786.096H3542.87V804.5H3432.87V665.616H3542.65V684.02H3453.42V726.391H3526.39V744.367H3453.42ZM3623.98 665.616H3644.53V804.5H3623.98V665.616ZM3800.09 781.816L3794.1 783.956V665.616H3814.86V804.5H3794.1L3697.16 688.728L3703.15 686.588V804.5H3682.61V665.616H3703.15L3800.09 781.816ZM3835.48 665.616H3957.24V684.02H3835.48V665.616ZM3885.98 681.88H3906.74V804.5H3885.98V681.88ZM4035.29 806.854C4020.88 806.854 4008.04 803.929 3996.77 798.08C3985.65 792.231 3976.87 783.956 3970.45 773.256C3964.18 762.557 3961.04 749.86 3961.04 735.165C3961.04 720.328 3964.18 707.559 3970.45 696.86C3976.87 686.16 3985.65 677.885 3996.77 672.036C4008.04 666.187 4020.88 663.262 4035.29 663.262C4049.85 663.262 4062.69 666.187 4073.81 672.036C4084.94 677.885 4093.71 686.16 4100.13 696.86C4106.55 707.559 4109.76 720.328 4109.76 735.165C4109.76 749.86 4106.55 762.557 4100.13 773.256C4093.71 783.956 4084.94 792.231 4073.81 798.08C4062.69 803.929 4049.85 806.854 4035.29 806.854ZM4035.29 788.236C4045.57 788.236 4054.7 786.239 4062.69 782.244C4070.67 778.25 4077.02 772.329 4081.73 764.483C4086.44 756.636 4088.79 746.864 4088.79 735.165C4088.79 723.467 4086.44 713.694 4081.73 705.848C4077.02 698.001 4070.67 692.08 4062.69 688.086C4054.7 683.949 4045.57 681.88 4035.29 681.88C4025.31 681.88 4016.25 683.949 4008.12 688.086C3999.98 692.08 3993.56 698.001 3988.86 705.848C3984.15 713.694 3981.79 723.467 3981.79 735.165C3981.79 746.864 3984.15 756.636 3988.86 764.483C3993.56 772.329 3999.98 778.25 4008.12 782.244C4016.25 786.239 4025.31 788.236 4035.29 788.236ZM4201.27 756.565V738.589H4251.13C4259.41 738.589 4266.04 736.092 4271.03 731.099C4276.17 726.106 4278.74 719.543 4278.74 711.411C4278.74 702.994 4276.17 696.36 4271.03 691.51C4266.04 686.659 4259.41 684.234 4251.13 684.234H4204.69V804.5H4184.15V665.616H4250.28C4257.12 665.616 4263.47 666.615 4269.32 668.612C4275.31 670.467 4280.52 673.32 4284.94 677.172C4289.51 681.024 4293 685.803 4295.43 691.51C4298 697.216 4299.28 703.85 4299.28 711.411C4299.28 718.83 4298 725.393 4295.43 731.099C4293 736.806 4289.51 741.585 4284.94 745.437C4280.52 749.146 4275.31 751.928 4269.32 753.783C4263.47 755.637 4257.12 756.565 4250.28 756.565H4201.27ZM4326.06 804.5V665.616H4397.53C4407.52 665.616 4416.08 667.114 4423.21 670.11C4430.49 672.963 4436.05 677.386 4439.9 683.378C4443.76 689.227 4445.68 696.717 4445.68 705.848C4445.68 712.125 4444.61 717.475 4442.47 721.897C4440.48 726.177 4437.69 729.744 4434.13 732.597C4430.56 735.45 4426.35 737.662 4421.5 739.231C4416.65 740.8 4411.44 741.799 4405.88 742.227L4404.38 740.943C4412.8 741.228 4419.86 742.156 4425.57 743.725C4431.27 745.294 4435.62 748.148 4438.62 752.285C4441.76 756.279 4443.33 762.271 4443.33 770.261V804.5H4422.57V770.903C4422.57 765.339 4421.64 760.987 4419.79 757.849C4417.93 754.71 4414.72 752.499 4410.16 751.215C4405.59 749.931 4399.17 749.289 4390.9 749.289H4346.6V804.5H4326.06ZM4346.6 731.313H4397.53C4406.66 731.313 4413.51 729.03 4418.08 724.465C4422.78 719.9 4425.14 713.908 4425.14 706.49C4425.14 699.356 4422.78 693.864 4418.08 690.012C4413.51 686.16 4406.66 684.234 4397.53 684.234H4346.6V731.313ZM4543.95 806.854C4529.54 806.854 4516.7 803.929 4505.43 798.08C4494.31 792.231 4485.53 783.956 4479.11 773.256C4472.84 762.557 4469.7 749.86 4469.7 735.165C4469.7 720.328 4472.84 707.559 4479.11 696.86C4485.53 686.16 4494.31 677.885 4505.43 672.036C4516.7 666.187 4529.54 663.262 4543.95 663.262C4558.51 663.262 4571.35 666.187 4582.47 672.036C4593.6 677.885 4602.37 686.16 4608.79 696.86C4615.21 707.559 4618.42 720.328 4618.42 735.165C4618.42 749.86 4615.21 762.557 4608.79 773.256C4602.37 783.956 4593.6 792.231 4582.47 798.08C4571.35 803.929 4558.51 806.854 4543.95 806.854ZM4543.95 788.236C4554.23 788.236 4563.36 786.239 4571.35 782.244C4579.33 778.25 4585.68 772.329 4590.39 764.483C4595.1 756.636 4597.45 746.864 4597.45 735.165C4597.45 723.467 4595.1 713.694 4590.39 705.848C4585.68 698.001 4579.33 692.08 4571.35 688.086C4563.36 683.949 4554.23 681.88 4543.95 681.88C4533.97 681.88 4524.91 683.949 4516.78 688.086C4508.64 692.08 4502.22 698.001 4497.52 705.848C4492.81 713.694 4490.45 723.467 4490.45 735.165C4490.45 746.864 4492.81 756.636 4497.52 764.483C4502.22 772.329 4508.64 778.25 4516.78 782.244C4524.91 786.239 4533.97 788.236 4543.95 788.236ZM4701.86 665.616C4716.27 665.616 4728.32 667.471 4738.02 671.18C4747.87 674.747 4755.71 679.74 4761.56 686.16C4767.55 692.58 4771.83 699.927 4774.4 708.201C4776.97 716.476 4778.25 725.25 4778.25 734.523C4778.25 743.654 4776.83 752.427 4773.97 760.845C4771.26 769.262 4766.84 776.752 4760.71 783.314C4754.71 789.877 4746.87 795.084 4737.17 798.936C4727.46 802.645 4715.7 804.5 4701.86 804.5H4646.22V665.616H4701.86ZM4666.76 785.882H4701.64C4712.63 785.882 4721.69 784.456 4728.82 781.602C4735.95 778.606 4741.59 774.683 4745.73 769.833C4750.01 764.839 4753 759.275 4754.71 753.141C4756.57 747.006 4757.5 740.8 4757.5 734.523C4757.5 728.103 4756.57 721.897 4754.71 715.905C4753 709.913 4750.01 704.564 4745.73 699.856C4741.59 695.005 4735.95 691.224 4728.82 688.514C4721.69 685.66 4712.63 684.234 4701.64 684.234H4666.76V785.882ZM4912.66 748.647V665.616H4933.2V749.503C4933.2 757.777 4932.13 765.053 4929.99 771.331C4927.99 777.608 4925.07 783.029 4921.22 787.594C4917.37 792.16 4912.8 795.869 4907.52 798.722C4902.39 801.433 4896.61 803.43 4890.19 804.714C4883.91 806.141 4877.21 806.854 4870.07 806.854C4862.65 806.854 4855.74 806.141 4849.32 804.714C4842.9 803.43 4836.97 801.433 4831.55 798.722C4826.28 795.869 4821.71 792.16 4817.86 787.594C4814.15 783.029 4811.22 777.608 4809.08 771.331C4807.09 765.053 4806.09 757.777 4806.09 749.503V665.616H4826.63V748.647C4826.63 759.347 4828.56 767.55 4832.41 773.256C4836.4 778.963 4841.68 782.886 4848.25 785.026C4854.81 787.166 4862.08 788.236 4870.07 788.236C4877.78 788.236 4884.84 787.166 4891.26 785.026C4897.68 782.886 4902.81 778.963 4906.67 773.256C4910.66 767.55 4912.66 759.347 4912.66 748.647ZM5099.47 756.993C5098.18 767.407 5094.62 776.324 5088.77 783.742C5083.06 791.161 5075.57 796.867 5066.3 800.862C5057.02 804.857 5046.47 806.854 5034.63 806.854C5023.93 806.854 5014.08 805.213 5005.1 801.932C4996.25 798.651 4988.55 793.943 4981.98 787.808C4975.42 781.674 4970.28 774.184 4966.58 765.339C4962.87 756.351 4961.01 746.293 4961.01 735.165C4961.01 723.895 4962.87 713.837 4966.58 704.992C4970.28 696.146 4975.42 688.656 4981.98 682.522C4988.55 676.245 4996.25 671.465 5005.1 668.184C5014.08 664.903 5023.93 663.262 5034.63 663.262C5046.61 663.262 5057.24 665.331 5066.51 669.468C5075.79 673.463 5083.28 679.241 5088.98 686.802C5094.83 694.22 5098.4 703.137 5099.68 713.551H5079.99C5078.14 706.846 5075.07 701.14 5070.79 696.432C5066.51 691.724 5061.3 688.157 5055.17 685.732C5049.04 683.164 5042.19 681.88 5034.63 681.88C5024.93 681.88 5016.08 683.949 5008.09 688.086C5000.1 692.223 4993.68 698.215 4988.83 706.062C4984.12 713.908 4981.77 723.609 4981.77 735.165C4981.77 746.578 4984.12 756.279 4988.83 764.269C4993.68 772.115 5000.1 778.107 5008.09 782.244C5016.08 786.239 5024.93 788.236 5034.63 788.236C5042.19 788.236 5048.96 787.024 5054.96 784.598C5061.09 782.173 5066.3 778.606 5070.58 773.898C5074.86 769.191 5078 763.555 5079.99 756.993H5099.47ZM5110.05 665.616H5231.82V684.02H5110.05V665.616ZM5160.56 681.88H5181.31V804.5H5160.56V681.88ZM5242.85 758.919H5262.53C5262.96 764.483 5264.82 769.547 5268.1 774.112C5271.52 778.535 5276.09 782.03 5281.79 784.598C5287.64 787.166 5294.42 788.45 5302.12 788.45C5308.83 788.45 5314.39 787.523 5318.82 785.668C5323.24 783.814 5326.52 781.317 5328.66 778.178C5330.94 774.897 5332.08 771.045 5332.08 766.623C5332.08 762.2 5330.87 758.705 5328.45 756.137C5326.02 753.426 5322.38 751.215 5317.53 749.503C5312.68 747.648 5306.69 745.865 5299.56 744.153C5293.28 742.584 5287.07 740.729 5280.94 738.589C5274.95 736.306 5269.38 733.524 5264.25 730.243C5259.25 726.962 5255.19 723.039 5252.05 718.473C5249.05 713.765 5247.55 708.13 5247.55 701.568C5247.55 694.577 5249.48 688.228 5253.33 682.522C5257.18 676.673 5262.82 672.036 5270.24 668.612C5277.8 665.045 5286.93 663.262 5297.63 663.262C5314.18 663.262 5326.66 667.399 5335.08 675.674C5343.64 683.949 5347.78 695.005 5347.49 708.843H5328.23C5327.8 699.142 5324.74 692.223 5319.03 688.086C5313.32 683.806 5305.9 681.666 5296.77 681.666C5288.93 681.666 5282.22 683.307 5276.66 686.588C5271.09 689.726 5268.31 694.72 5268.31 701.568C5268.31 704.564 5268.95 707.203 5270.24 709.485C5271.52 711.625 5273.66 713.623 5276.66 715.477C5279.65 717.332 5283.65 719.115 5288.64 720.827C5293.78 722.539 5300.13 724.394 5307.69 726.391C5313.39 727.675 5318.89 729.316 5324.17 731.313C5329.59 733.31 5334.44 735.807 5338.72 738.803C5343 741.799 5346.35 745.651 5348.78 750.359C5351.34 755.067 5352.63 760.845 5352.63 767.693C5352.63 774.968 5350.84 781.602 5347.28 787.594C5343.71 793.444 5338.15 798.151 5330.59 801.718C5323.17 805.142 5313.54 806.854 5301.7 806.854C5292.28 806.854 5284.08 805.641 5277.09 803.216C5270.24 800.791 5264.46 797.652 5259.75 793.8C5255.19 789.948 5251.55 785.811 5248.84 781.388C5246.27 776.966 5244.49 772.757 5243.49 768.763C5242.63 764.768 5242.42 761.487 5242.85 758.919Z" fill="black"/>
<path d="M2752.08 744.367V786.096H2841.53V804.5H2731.53V665.616H2841.31V684.02H2752.08V726.391H2825.05V744.367H2752.08Z" fill="#DA74FF"/>
</svg>
