<svg width="6470" height="2609" viewBox="0 0 6470 2609" fill="none" xmlns="http://www.w3.org/2000/svg">
<rect width="6470" height="2608.42" fill="white"/>
<path d="M314.632 1304.21C992.945 1201.89 1176.94 942.408 1304.21 314.635C1436.41 1000.55 1666.36 1201.44 2292.51 1304.85C1615.88 1422.33 1418.7 1656.57 1304.21 2293.79C1156.69 1592.24 926.751 1393.05 314.632 1304.21Z" fill="black" stroke="black" stroke-width="1.27358"/>
<path fill-rule="evenodd" clip-rule="evenodd" d="M1643.15 907.205C1677.28 892.321 1712.75 875.617 1749.96 857.174V1040.9C1747.83 1041.87 1745.71 1042.83 1743.6 1043.78L1236.92 1477.7C1398.68 1464.35 1549.11 1492.56 1749.96 1566.22V1749.95C1404.78 1612.88 1208.82 1631.08 857.18 1749.95V1566.22C857.411 1566.15 857.642 1566.07 857.873 1565.99L1327.35 1163.93C1181.31 1171.23 1040.18 1131.51 857.179 1040.9V857.174C1160.22 1022.3 1347.15 1029.61 1611.38 920.692L1611.38 920.689L1643.15 907.204L1643.15 907.205Z" fill="#C6FF53"/>
<path d="M2958.18 1345.67V987.014H3090.31V1359.57C3090.31 1401.96 3084.02 1439.05 3071.44 1470.85C3059.52 1502.64 3042.29 1529.46 3019.78 1551.32C2997.26 1573.18 2970.76 1591.06 2940.3 1604.97C2910.49 1618.21 2877.71 1627.82 2841.94 1633.78C2806.84 1639.74 2769.75 1642.72 2730.67 1642.72C2690.27 1642.72 2651.85 1639.74 2615.42 1633.78C2579 1627.82 2545.55 1618.21 2515.08 1604.97C2485.28 1591.06 2459.45 1573.18 2437.59 1551.32C2415.73 1529.46 2398.51 1502.64 2385.93 1470.85C2374 1439.05 2368.04 1401.96 2368.04 1359.57V987.014H2500.18V1345.67C2500.18 1396 2510.11 1434.42 2529.98 1460.91C2549.85 1486.74 2577.01 1504.62 2611.45 1514.56C2646.55 1523.83 2686.29 1528.47 2730.67 1528.47C2773.72 1528.47 2812.14 1523.83 2845.91 1514.56C2880.36 1504.62 2907.51 1486.74 2927.38 1460.91C2947.91 1434.42 2958.18 1396 2958.18 1345.67ZM3243.17 1629.8V987.014H3613.75C3699.85 987.014 3765.09 1001.59 3809.46 1030.73C3854.5 1059.21 3877.02 1101.93 3877.02 1158.89C3877.02 1195.32 3868.08 1224.13 3850.2 1245.32C3832.31 1265.85 3806.81 1281.09 3773.7 1291.02C3741.24 1300.96 3702.83 1307.25 3658.45 1309.9L3662.43 1302.94C3694.88 1303.61 3725.35 1305.93 3753.83 1309.9C3782.97 1313.87 3808.47 1321.16 3830.33 1331.76C3852.18 1342.35 3869.4 1357.26 3881.99 1376.46C3894.57 1395.01 3900.86 1419.51 3900.86 1449.98C3900.86 1489.72 3890.27 1522.84 3869.07 1549.33C3847.88 1575.16 3818.4 1594.7 3780.65 1607.95C3742.9 1621.19 3699.19 1628.48 3649.51 1629.8H3243.17ZM3375.31 1520.52H3635.6C3677.33 1520.52 3709.45 1513.9 3731.97 1500.65C3754.49 1486.74 3765.75 1464.88 3765.75 1435.08C3765.75 1413.22 3759.13 1397.33 3745.88 1387.39C3732.63 1377.46 3715.08 1371.5 3693.22 1369.51C3671.37 1366.86 3647.86 1365.53 3622.69 1365.53H3375.31V1520.52ZM3375.31 1259.23H3608.78C3650.5 1259.23 3682.63 1253.27 3705.15 1241.35C3727.67 1228.76 3738.93 1207.57 3738.93 1177.76C3738.93 1147.96 3727.67 1127.1 3705.15 1115.17C3682.63 1102.59 3652.82 1096.3 3615.73 1096.3H3375.31V1259.23ZM4644.6 987.014L4362.44 1427.13V1629.8H4229.32V1427.13L3947.16 987.014H4100.16L4337.61 1371.5H4258.13L4491.6 987.014H4644.6ZM4693.28 987.014H5370.84V1097.29H4693.28V987.014ZM4966.49 1083.38H5098.62V1629.8H4966.49V1083.38ZM5599.02 1361.56V1519.53H6094.78V1629.8H5466.89V987.014H6093.78V1097.29H5599.02V1257.24H6004.37V1361.56H5599.02Z" fill="black"/>
</svg>
